<svg width="10" height="13" viewBox="0 0 10 13" fill="none" xmlns="http://www.w3.org/2000/svg">
<path d="M9.90119 5.68373C9.90119 5.02787 9.77343 4.37844 9.5252 3.7725C9.27697 3.16657 8.91314 2.616 8.45447 2.15224C7.99581 1.68848 7.45129 1.32061 6.85202 1.06962C6.25274 0.818634 5.61044 0.689453 4.96179 0.689453C4.31314 0.689453 3.67084 0.818634 3.07157 1.06962C2.47229 1.32061 1.92778 1.68848 1.46911 2.15224C1.01045 2.616 0.646617 3.16657 0.398389 3.7725C0.150161 4.37844 0.0223999 5.02787 0.0223999 5.68373C0.0223999 6.67331 0.311707 7.59368 0.802119 8.36994H0.796474C2.46176 11.0062 4.96179 12.7635 4.96179 12.7635L9.12711 8.36994H9.12217C9.63052 7.56826 9.90087 6.63602 9.90119 5.68373ZM4.96179 7.82413C4.40036 7.82413 3.86192 7.59863 3.46493 7.19722C3.06794 6.79582 2.84491 6.2514 2.84491 5.68373C2.84491 5.11606 3.06794 4.57164 3.46493 4.17023C3.86192 3.76883 4.40036 3.54332 4.96179 3.54332C5.52323 3.54332 6.06166 3.76883 6.45866 4.17023C6.85565 4.57164 7.07868 5.11606 7.07868 5.68373C7.07868 6.2514 6.85565 6.79582 6.45866 7.19722C6.06166 7.59863 5.52323 7.82413 4.96179 7.82413Z" fill="#2D3134"/>
</svg>
